<?xml version="1.0" encoding="UTF-8" standalone="no"?>
<svg width="50px" height="50px" viewBox="0 0 50 50" version="1.1" xmlns="http://www.w3.org/2000/svg" xmlns:xlink="http://www.w3.org/1999/xlink">
    <!-- Generator: Sketch 3.7.2 (28276) - http://www.bohemiancoding.com/sketch -->
    <title>blog_on</title>
    <desc>Created with Sketch.</desc>
    <defs>
        <path d="M33,0 L3,0 C1.15071429,0 0,1.15483871 0,3 L0,32 C0,33.683871 1.15071429,34.8387097 3,35 L13,35 L18,40 L23,35 L33,35 C34.8492857,34.8387097 36,33.683871 36,32 L36,3 C36,1.15483871 34.8492857,0 33,0 L33,0 L33,0 Z" id="path-1"></path>
        <mask id="mask-2" maskContentUnits="userSpaceOnUse" maskUnits="objectBoundingBox" x="0" y="0" width="36" height="40" fill="white">
            <use xlink:href="#path-1"></use>
        </mask>
    </defs>
    <g id="Page-1" stroke="none" stroke-width="1" fill="none" fill-rule="evenodd">
        <g id="Desktop" transform="translate(-595.000000, -1299.000000)">
            <g id="blog" transform="translate(595.000000, 1299.000000)">
                <g id="Group" transform="translate(7.000000, 5.000000)">
                    <g id="Content_Collection">
                        <g id="Icons">
                            <g id="Group">
                                <use id="Shape" stroke="#979797" mask="url(#mask-2)" stroke-width="2" fill="#FFFFFF" xlink:href="#path-1"></use>
                                <rect id="Rectangle-path" fill="#C1C3C2" x="6" y="9" width="23" height="1"></rect>
                                <rect id="Rectangle-path" fill="#C1C3C2" x="6" y="14" width="23" height="1"></rect>
                                <rect id="Rectangle-path" fill="#C1C3C2" x="6" y="19" width="23" height="1"></rect>
                                <rect id="Rectangle-path" fill="#C1C3C2" x="6" y="25" width="12" height="1"></rect>
                            </g>
                        </g>
                    </g>
                </g>
            </g>
        </g>
    </g>
</svg>