<?xml version="1.0" encoding="UTF-8" standalone="no"?>
<svg width="50px" height="50px" viewBox="0 0 50 50" version="1.1" xmlns="http://www.w3.org/2000/svg" xmlns:xlink="http://www.w3.org/1999/xlink">
    <!-- Generator: Sketch 3.7.2 (28276) - http://www.bohemiancoding.com/sketch -->
    <title>journal_on</title>
    <desc>Created with Sketch.</desc>
    <defs></defs>
    <g id="Page-1" stroke="none" stroke-width="1" fill="none" fill-rule="evenodd">
        <g id="Desktop" transform="translate(-570.000000, -711.000000)">
            <g id="journal" transform="translate(570.000000, 711.000000)">
                <g id="icon-large-journal" transform="translate(10.000000, 5.000000)">
                    <g id="Group">
                        <path d="M29,4 L29,37.8823529 C29,39.0523529 28.0718519,40 26.9259259,40 L3.07407407,40 C1.92814815,40 1,39.0523529 1,37.8823529 L1,4 L29,4 L29,4 Z" id="Shape" fill="#FFFFFF"></path>
                        <path d="M25,4 L25,40 L27,40 C28.105,40 29,39.0523529 29,37.8823529 L29,4 L25,4 L25,4 Z" id="Shape" fill="#EFCDE1"></path>
                        <path d="M28,5 L28,37.9375 C28,38.521875 27.532,39 26.96,39 L3.04,39 C2.468,39 2,38.521875 2,37.9375 L2,5 L28,5 L28,5 Z M29,4 L1,4 L1,37.8823529 C1,39.0523529 1.92814815,40 3.07407407,40 L26.9259259,40 C28.0718519,40 29,39.0523529 29,37.8823529 L29,4 L29,4 Z" id="Shape" fill="#777677"></path>
                        <path d="M5.11538462,7 C3.39776923,7 2,5.654 2,4 C2,2.346 3.39776923,1 5.11538462,1 L29,1 L29,7 L5.11538462,7 L5.11538462,7 Z" id="Shape" fill="#FFFFFF"></path>
                        <path d="M28,1 L28,6 L4.6,6 C3.16688,6 2,4.878 2,3.5 C2,2.122 3.16688,1 4.6,1 L28,1 L28,1 Z M29,0 L4.62962963,0 C2.63333333,0 1,1.575 1,3.5 C1,5.425 2.63333333,7 4.62962963,7 L29,7 L29,0 L29,0 Z" id="Shape" fill="#777677"></path>
                        <polygon id="Shape" fill="#FFFFFF" points="28 1 29 1 29 6 28 6"></polygon>
                        <path d="M5,2 L23,2 L23,3 L5,3 L5,2 Z M5,4 L23,4 L23,5 L5,5 L5,4 Z M26,2 L29,2 L29,3 L26,3 L26,2 Z M26,4 L29,4 L29,5 L26,5 L26,4 Z M24,0 L25,0 L25,39 L24,39 L24,0 Z M0,20 L3,20 L3,21 L0,21 L0,20 Z M0,16 L3,16 L3,17 L0,17 L0,16 Z M0,12 L3,12 L3,13 L0,13 L0,12 Z M0,33 L3,33 L3,34 L0,34 L0,33 Z M0,24 L3,24 L3,25 L0,25 L0,24 Z M0,28 L3,28 L3,29 L0,29 L0,28 Z" id="Shape" fill="#777677"></path>
                    </g>
                </g>
            </g>
        </g>
    </g>
</svg>