<?xml version="1.0" encoding="UTF-8" standalone="no"?>
<svg width="50px" height="50px" viewBox="0 0 50 50" version="1.1" xmlns="http://www.w3.org/2000/svg" xmlns:xlink="http://www.w3.org/1999/xlink">
    <!-- Generator: Sketch 3.7.2 (28276) - http://www.bohemiancoding.com/sketch -->
    <title>personalinfo_on</title>
    <desc>Created with Sketch.</desc>
    <defs>
        <path d="M1,11 L35,11 L35,12 L1,12 L1,11 Z M2.64285714,0 C1.18928571,0 0,1.2 0,2.66666667 L0,37.3333333 C0,38.8 1.18928571,40 2.64285714,40 L34.3571429,40 C35.8107143,40 37,38.8 37,37.3333333 L37,2.66666667 C37,1.2 35.8107143,0 34.3571429,0 L2.64285714,0 Z M19,17 C21.2093333,17 23,18.7906667 23,21 C23,23.2093333 21.2093333,25 19,25 C16.7906667,25 15,23.2093333 15,21 C15,18.7906667 16.7906667,17 19,17 L19,17 Z" id="path-1"></path>
        <mask id="mask-2" maskContentUnits="userSpaceOnUse" maskUnits="objectBoundingBox" x="0" y="0" width="37" height="40" fill="white">
            <use xlink:href="#path-1"></use>
        </mask>
        <path d="M0,2.66666667 C0,1.2 1.23289286,0 2.74064286,0 L34.2593571,0 C35.7657857,0 37,1.2 37,2.66666667 L37,13 L0,13 L0,2.66666667 Z" id="path-3"></path>
        <mask id="mask-4" maskContentUnits="userSpaceOnUse" maskUnits="objectBoundingBox" x="0" y="0" width="37" height="13" fill="white">
            <use xlink:href="#path-3"></use>
        </mask>
    </defs>
    <g id="Page-1" stroke="none" stroke-width="1" fill="none" fill-rule="evenodd">
        <g id="Desktop" transform="translate(-248.000000, -517.000000)">
            <g id="personalinfo_on" transform="translate(248.000000, 517.000000)">
                <g id="icon-large-user-card" transform="translate(6.000000, 5.000000)">
                    <g id="Group">
                        <path d="M34.3571429,40 L2.64285714,40 C1.18928571,40 0,38.8 0,37.3333333 L0,2.66666667 C0,1.2 1.18928571,0 2.64285714,0 L34.3571429,0 C35.8107143,0 37,1.2 37,2.66666667 L37,37.3333333 C37,38.8 35.8107143,40 34.3571429,40 L34.3571429,40 Z" id="Shape" fill="#FFFFFF"></path>
                        <use id="Shape" stroke="#777677" mask="url(#mask-2)" stroke-width="2" fill="#FFFFFF" xlink:href="#path-1"></use>
                        <use id="Shape" stroke="#777677" mask="url(#mask-4)" stroke-width="2" fill="#E8F6F7" xlink:href="#path-3"></use>
                        <path d="M9,29 L29,29 L29,30 L9,30 L9,29 Z M12,32 L26,32 L26,33 L12,33 L12,32 Z" id="Shape" fill="#BDBEBE"></path>
                        <path d="M23,6 C23,7.104 22.104,8 21,8 L17,8 C15.896,8 15,7.104 15,6 C15,4.896 15.896,4 17,4 L21,4 C22.104,4 23,4.896 23,6 L23,6 Z" id="Shape" stroke="#777677" fill="#FFFFFF"></path>
                    </g>
                </g>
            </g>
        </g>
    </g>
</svg>